<svg width="247" height="261" fill="none" xmlns="http://www.w3.org/2000/svg">
  <path d="M185.227 123.247c1.908-.228 3.735-.238 5.414 0 .972-2.225 1.139-6.06.265-10.236-1.299-6.207-3.058-9.963-6.693-9.378-3.634.584-3.768 5.081-2.469 11.289.731 3.49 2.033 6.475 3.483 8.325ZM154.026 128.158c2.6 1.139 4.198 1.893 4.824 1.234.402-.412.282-1.197-.339-2.209-1.283-2.09-3.923-4.211-6.724-5.402-5.729-2.46-12.559-1.642-17.829 2.137-1.74 1.272-3.39 3.035-3.153 4.105.076.346.337.606.947.691 1.434.164 6.447-2.365 12.22-2.717 4.077-.25 7.454 1.023 10.054 2.161ZM148.794 131.136c-3.386.534-5.255 1.648-6.454 2.685-1.024.893-1.656 1.879-1.651 2.573.003.33.146.52.259.615a.813.813 0 0 0 .557.212c.765 0 2.479-.686 2.479-.686 4.713-1.683 7.822-1.48 10.904-1.13 1.702.191 2.506.297 2.88-.286.11-.167.245-.529-.097-1.08-.793-1.284-4.213-3.456-8.877-2.903ZM174.691 142.071c2.3 1.128 4.832.684 5.656-.989.824-1.674-.372-3.944-2.672-5.072-2.3-1.127-4.832-.685-5.656.988-.824 1.674.372 3.945 2.672 5.073ZM189.475 129.178c-1.867-.031-3.418 2.016-3.461 4.573-.043 2.557 1.436 4.654 3.304 4.686 1.869.031 3.418-2.016 3.462-4.572.043-2.557-1.436-4.655-3.305-4.687ZM62.025 175.046c-.517.12-1.102.257-1.743.245-1.374-.026-2.538-.612-3.191-1.614-.851-1.304-.802-3.248.137-5.476.127-.299.276-.632.439-.996 1.498-3.355 4.006-8.969 1.19-14.32-2.118-4.027-5.574-6.535-9.73-7.062-3.99-.504-8.097.972-10.716 3.857-4.133 4.55-4.779 10.741-3.98 12.929.293.801.751 1.023 1.084 1.069.703.095 1.743-.416 2.395-2.165.046-.126.109-.321.186-.569.29-.925.83-2.645 1.716-4.025a7.334 7.334 0 0 1 4.681-3.228 7.515 7.515 0 0 1 5.72 1.065c2.895 1.891 4.01 5.432 2.775 8.81-.64 1.746-1.678 5.087-1.448 7.831.462 5.557 3.886 7.787 6.962 8.023 2.992.113 5.082-1.561 5.61-2.787.313-.724.05-1.165-.12-1.354-.464-.582-1.228-.404-1.967-.233Z" fill="#000"/>
  <path d="m141.012 182.242.004.006.005.012-.009-.018Zm96.052 1.063c-1.91 11.553-6.831 20.929-15.101 29.554-5.033 5.408-11.145 10.11-18.138 13.529a76.682 76.682 0 0 1-11.844 4.992c-31.175 10.161-63.086-1.01-73.374-25a38.424 38.424 0 0 1-2.062-5.667c-4.384-15.808-.662-34.775 10.971-46.713.001-.001-.002-.005-.001-.006.718-.761 1.449-1.656 1.449-2.783 0-.942-.6-1.936-1.12-2.64-4.07-5.892-18.168-15.931-15.338-35.359 2.032-13.957 14.263-23.787 25.667-23.204.963.05 1.928.11 2.89.166 4.941.292 9.253.924 13.321 1.095 6.808.293 12.932-.695 20.183-6.725 2.447-2.034 4.407-3.798 7.726-4.359.348-.059 1.217-.37 2.951-.288 1.77.094 3.455.58 4.97 1.586 5.814 3.86 6.639 13.21 6.94 20.051.171 3.904.644 13.352.806 16.063.37 6.201 2.003 7.076 5.308 8.161 1.858.61 3.583 1.066 6.125 1.778 7.696 2.156 12.259 4.344 15.135 7.154 1.715 1.755 2.512 3.622 2.759 5.401.908 6.607-5.14 14.768-21.148 22.183-17.498 8.105-38.727 10.157-53.394 8.527a3655.03 3655.03 0 0 1-5.139-.58c-11.732-1.576-18.425 13.556-11.384 23.922 4.538 6.681 16.899 11.029 29.267 11.031 28.356.005 50.152-12.08 58.258-22.517.243-.312.267-.346.649-.922.399-.601.07-.93-.427-.592-6.624 4.523-36.045 22.48-67.515 17.078 0 0-3.824-.626-7.315-1.983-2.774-1.077-8.579-3.741-9.285-9.686 25.397 7.838 41.388.429 41.388.429a.781.781 0 0 0 .455-.778.732.732 0 0 0-.803-.654s-20.819 3.076-40.486-4.11c2.142-6.948 7.838-4.439 16.448-3.746 15.518.923 29.427-1.339 39.705-4.283 8.907-2.552 20.606-7.581 29.692-14.737 3.065 6.718 4.148 14.112 4.148 14.112s2.372-.424 4.354.795c1.874 1.149 3.248 3.541 2.309 9.725ZM92.427 73.245c9.755-11.25 21.765-21.032 32.522-26.523.372-.19.767.213.565.578-.854 1.543-2.499 4.849-3.02 7.357-.081.39.345.684.675.46 6.693-4.553 18.335-9.431 28.547-10.058.439-.027.651.534.302.802-1.553 1.188-3.251 2.833-4.492 4.497a.434.434 0 0 0 .341.694c7.171.05 17.28 2.555 23.868 6.242.446.25.128 1.112-.37.998-9.969-2.281-26.287-4.01-43.237.115-15.132 3.683-26.682 9.37-35.109 15.487-.425.309-.937-.252-.592-.65Zm-50.68 53.502c-8.833 1.714-16.618 6.71-21.378 13.61-2.846-2.368-8.146-6.952-9.082-8.739-7.6-14.401 8.294-42.402 19.397-58.215 27.44-39.078 70.418-68.658 90.314-63.29 3.233.913 13.946 13.307 13.946 13.307s-19.888 11.012-38.33 26.361c-24.85 19.096-43.622 46.85-54.868 76.966Zm14.841 66.086a21.28 21.28 0 0 1-4.075.286c-13.29-.357-27.645-12.296-29.072-26.456-1.576-15.651 6.437-27.698 20.625-30.553a24.196 24.196 0 0 1 5.957-.423c7.949.434 19.664 6.527 22.34 23.808 2.37 15.306-1.395 30.891-15.775 33.338Zm180.027-27.714c-.114-.401-.856-3.108-1.875-6.368-1.019-3.259-2.074-5.555-2.074-5.555 4.088-6.107 4.16-11.569 3.617-14.661-.58-3.835-2.179-7.102-5.404-10.479-3.223-3.379-9.817-6.837-19.083-9.433-1.06-.298-4.555-1.255-4.862-1.347-.024-.201-.256-11.44-.467-16.264-.153-3.488-.453-8.932-2.146-14.296-2.018-7.258-5.533-13.611-9.92-17.674 12.108-12.526 19.666-26.324 19.648-38.162-.034-22.763-28.048-29.652-62.571-15.385-.037.014-7.263 3.072-7.315 3.098-.032-.032-13.224-12.948-13.422-13.121C91.38-28.789-31.685 107.722 7.661 140.877l8.6 7.27c-2.232 5.766-3.108 12.372-2.392 19.476.919 9.125 5.636 17.872 13.28 24.63 7.257 6.416 16.797 10.477 26.056 10.47 15.312 35.212 50.296 56.814 91.316 58.031 44.001 1.304 80.937-19.301 96.414-56.314 1.012-2.598 5.308-14.302 5.308-24.634 0-10.384-5.882-14.687-9.628-14.687Z" fill="#000"/>
</svg>
